<svg xmlns="http://www.w3.org/2000/svg" viewBox="0 0 1600 700" role="img" aria-labelledby="title description">
<title id="title">Representative collaborative planning map</title>
<desc id="description">Thirty cities with two colored optimal routes, rendered from map 12 in the project data.</desc>
<rect width="1600" height="700" fill="#f7f5f0"/>
<line x1="120" y1="38" x2="120" y2="468" stroke="#d6dbd0" stroke-width="1"/>
<line x1="290" y1="38" x2="290" y2="468" stroke="#d6dbd0" stroke-width="1"/>
<line x1="460" y1="38" x2="460" y2="468" stroke="#d6dbd0" stroke-width="1"/>
<line x1="630" y1="38" x2="630" y2="468" stroke="#d6dbd0" stroke-width="1"/>
<line x1="800" y1="38" x2="800" y2="468" stroke="#d6dbd0" stroke-width="1"/>
<line x1="970" y1="38" x2="970" y2="468" stroke="#d6dbd0" stroke-width="1"/>
<line x1="1140" y1="38" x2="1140" y2="468" stroke="#d6dbd0" stroke-width="1"/>
<line x1="1310" y1="38" x2="1310" y2="468" stroke="#d6dbd0" stroke-width="1"/>
<line x1="1480" y1="38" x2="1480" y2="468" stroke="#d6dbd0" stroke-width="1"/>
<line x1="108" y1="48" x2="1492" y2="48" stroke="#d6dbd0" stroke-width="1"/>
<line x1="108" y1="128" x2="1492" y2="128" stroke="#d6dbd0" stroke-width="1"/>
<line x1="108" y1="208" x2="1492" y2="208" stroke="#d6dbd0" stroke-width="1"/>
<line x1="108" y1="288" x2="1492" y2="288" stroke="#d6dbd0" stroke-width="1"/>
<line x1="108" y1="368" x2="1492" y2="368" stroke="#d6dbd0" stroke-width="1"/>
<line x1="108" y1="448" x2="1492" y2="448" stroke="#d6dbd0" stroke-width="1"/>
<polyline points="1472.1,162.6 522.1,292.2 553.6,448.0 916.3,64.2" fill="none" stroke="#0e74b8" stroke-width="12" stroke-linecap="round" stroke-linejoin="round" opacity="0.78"/>
<polyline points="1357.8,338.3 715.2,406.9 963.6,305.9 782.3,190.1" fill="none" stroke="#a1200e" stroke-width="12" stroke-linecap="round" stroke-linejoin="round" opacity="0.78"/>
<circle cx="1480.0" cy="197.5" r="6" fill="#1d211d" stroke="#1d211d" stroke-width="0"/>
<circle cx="908.4" cy="131.5" r="6" fill="#1d211d" stroke="#1d211d" stroke-width="0"/>
<circle cx="1357.8" cy="338.3" r="10" fill="#ffffff" stroke="#1d211d" stroke-width="5"/>
<circle cx="305.3" cy="234.9" r="6" fill="#1d211d" stroke="#1d211d" stroke-width="0"/>
<circle cx="553.6" cy="377.0" r="6" fill="#1d211d" stroke="#1d211d" stroke-width="0"/>
<circle cx="285.6" cy="363.3" r="6" fill="#1d211d" stroke="#1d211d" stroke-width="0"/>
<circle cx="671.9" cy="121.5" r="6" fill="#1d211d" stroke="#1d211d" stroke-width="0"/>
<circle cx="1172.5" cy="338.3" r="6" fill="#1d211d" stroke="#1d211d" stroke-width="0"/>
<circle cx="522.1" cy="292.2" r="10" fill="#ffffff" stroke="#1d211d" stroke-width="5"/>
<circle cx="943.9" cy="165.1" r="6" fill="#1d211d" stroke="#1d211d" stroke-width="0"/>
<circle cx="1286.8" cy="441.8" r="6" fill="#1d211d" stroke="#1d211d" stroke-width="0"/>
<circle cx="321.0" cy="135.2" r="6" fill="#1d211d" stroke="#1d211d" stroke-width="0"/>
<circle cx="1318.4" cy="115.3" r="6" fill="#1d211d" stroke="#1d211d" stroke-width="0"/>
<circle cx="1144.9" cy="48.0" r="6" fill="#1d211d" stroke="#1d211d" stroke-width="0"/>
<circle cx="1472.1" cy="162.6" r="10" fill="#ffffff" stroke="#1d211d" stroke-width="5"/>
<circle cx="1101.6" cy="144.0" r="6" fill="#1d211d" stroke="#1d211d" stroke-width="0"/>
<circle cx="963.6" cy="329.6" r="6" fill="#1d211d" stroke="#1d211d" stroke-width="0"/>
<circle cx="715.2" cy="406.9" r="10" fill="#ffffff" stroke="#1d211d" stroke-width="5"/>
<circle cx="1409.0" cy="126.5" r="6" fill="#1d211d" stroke="#1d211d" stroke-width="0"/>
<circle cx="750.7" cy="278.5" r="6" fill="#1d211d" stroke="#1d211d" stroke-width="0"/>
<circle cx="963.6" cy="305.9" r="10" fill="#ffffff" stroke="#1d211d" stroke-width="5"/>
<circle cx="782.3" cy="190.1" r="10" fill="#ffffff" stroke="#1d211d" stroke-width="5"/>
<circle cx="632.5" cy="252.4" r="6" fill="#1d211d" stroke="#1d211d" stroke-width="0"/>
<circle cx="553.6" cy="448.0" r="10" fill="#ffffff" stroke="#1d211d" stroke-width="5"/>
<circle cx="916.3" cy="64.2" r="10" fill="#ffffff" stroke="#1d211d" stroke-width="5"/>
<circle cx="120.0" cy="226.2" r="6" fill="#1d211d" stroke="#1d211d" stroke-width="0"/>
<circle cx="1436.6" cy="210.0" r="6" fill="#1d211d" stroke="#1d211d" stroke-width="0"/>
<circle cx="399.9" cy="352.0" r="6" fill="#1d211d" stroke="#1d211d" stroke-width="0"/>
<circle cx="1141.0" cy="198.8" r="6" fill="#1d211d" stroke="#1d211d" stroke-width="0"/>
<circle cx="995.1" cy="92.9" r="6" fill="#1d211d" stroke="#1d211d" stroke-width="0"/>
<g font-family="Jost, Arial, sans-serif">
<text x="108" y="590" font-size="18" letter-spacing="3" fill="#6e767a">REPRESENTATIVE TASK MAP / 012</text>
<line x1="108" y1="628" x2="158" y2="628" stroke="#0e74b8" stroke-width="8" stroke-linecap="round"/>
<text x="176" y="634" font-size="22" fill="#1d211d">Participant A</text>
<line x1="380" y1="628" x2="430" y2="628" stroke="#a1200e" stroke-width="8" stroke-linecap="round"/>
<text x="448" y="634" font-size="22" fill="#1d211d">Participant B</text>
<text x="1492" y="634" text-anchor="end" font-size="18" fill="#6e767a">30 cities · optimal routes</text>
</g>
</svg>
